<?xml version="1.0" encoding="utf-8"?>
<!-- Generator: Adobe Illustrator 15.1.0, SVG Export Plug-In . SVG Version: 6.00 Build 0)  -->
<!DOCTYPE svg PUBLIC "-//W3C//DTD SVG 1.1//EN" "http://www.w3.org/Graphics/SVG/1.1/DTD/svg11.dtd">
<svg version="1.1" id="圖層_1" xmlns="http://www.w3.org/2000/svg" xmlns:xlink="http://www.w3.org/1999/xlink" x="0px" y="0px"
	 width="331.938px" height="59.919px" viewBox="0 0 331.938 59.919" enable-background="new 0 0 331.938 59.919"
	 xml:space="preserve">
<g>
	<g>
		<path fill-rule="evenodd" clip-rule="evenodd" fill="#3E3A39" d="M127.893,47.009l-2.936,1.857l0.825,0.594
			c0.619,0.52,0.636,0.771,0.667,1.438l0.006,0.067c0.005,0.017,0.005,0.035,0.005,0.056c0,0.657-0.569,3.283-1.477,5.026
			c-0.467-1.427-2.714-8.241-2.714-8.241h-3.717c0,0,0.875,2.557,0.966,2.819c-0.07,0.247-1.051,3.504-1.53,5.065
			c-0.61-1.813-2.638-7.885-2.638-7.885h-3.745l4.024,11.597h3.573c0,0,1.117-3.712,1.595-5.297
			c0.537,1.574,1.784,5.297,1.784,5.297h3.263l0.255-0.563c2.157-4.188,3.314-7.342,3.404-9.355c0.031-0.94-0.313-1.753-0.974-2.304
			c-0.004-0.006-0.402-0.32-0.402-0.32L127.893,47.009z M100.18,47.365c-0.305,0.221-0.456,0.332-0.9,0.411l0,0l-0.099,0.019
			c-0.436,0.081-0.928,0.173-1.521,0.064l-0.311-0.059L92.47,59.403h2.772c0,0,1.185-3.032,1.373-3.5c0.446,0,3.443,0,3.884,0
			c0.186,0.468,1.413,3.5,1.413,3.5h3.985l-5.295-12.326L100.18,47.365z M98.53,51.012c0.386,0.96,0.863,2.152,1.152,2.866
			c-0.676,0-1.606,0-2.271,0C97.685,53.164,98.151,51.977,98.53,51.012z M246.897,47.365c-0.303,0.221-0.459,0.332-0.917,0.411
			l-0.084,0.019c-0.443,0.081-0.944,0.173-1.536,0.064l-0.311-0.059l-4.859,11.603h2.76c0,0,1.185-3.032,1.37-3.5
			c0.446,0,3.439,0,3.881,0c0.186,0.465,1.414,3.5,1.414,3.5h4.004l-5.308-12.326L246.897,47.365z M245.244,51.012
			c0.386,0.96,0.856,2.152,1.152,2.866c-0.682,0-1.613,0-2.284,0C244.397,53.164,244.858,51.977,245.244,51.012z M136.536,47.351
			l-0.05,0.037c-0.301,0.2-0.452,0.312-0.889,0.389l0,0l0,0l-0.094,0.019c-0.432,0.081-0.931,0.173-1.528,0.064l-0.309-0.059
			l-4.869,11.603h2.758c0,0,1.192-3.032,1.38-3.5c0.456,0,3.443,0,3.888,0c0.189,0.468,1.4,3.5,1.4,3.5h4.002l-5.293-12.321
			L136.536,47.351z M134.845,51.012c0.394,0.96,0.867,2.152,1.152,2.866c-0.674,0-1.604,0-2.275,0
			C134.006,53.164,134.471,51.977,134.845,51.012z M204.702,49.529c-0.944,1.061-1.466,2.447-1.466,3.912
			c0,3.656,2.712,6.013,6.914,6.026c1.813,0.018,3.515-0.575,4.328-1.146c0.01-0.005,0.811-0.591,0.811-0.591l-1.883-1.946
			l-0.618,0.603c-0.692,0.723-1.512,1.038-2.665,1.053c-0.827,0.01-1.507-0.275-2.02-0.854c-0.63-0.717-0.981-1.895-0.957-3.229
			c0.02-0.937,0.281-3.996,2.977-3.959c1.195,0.017,1.879,0.405,2.603,1.036l0.267,0.242l0.304,0.263l1.785-2.124l-0.851-0.467
			c-1.363-0.687-2.447-0.93-4.139-0.93C207.216,47.417,205.568,48.562,204.702,49.529z M179.299,47.499
			c-4.154,0.006-6.495,3.172-6.595,6.137c0,0.075-0.011,0.138-0.011,0.206c0,1.328,0.469,2.598,1.319,3.586
			c1.224,1.417,3.144,2.194,5.395,2.183c2.886-0.001,4.48-1.161,5.297-2.127c0.893-1.044,1.35-2.414,1.288-3.848
			C185.874,50.641,183.489,47.468,179.299,47.499z M176.651,53.786L176.651,53.786c-0.039-1.286,0.407-2.647,1.115-3.472
			c0.453-0.521,0.97-0.785,1.543-0.785c2.598-0.015,2.733,4.4,2.739,4.582c0.04,1.233-0.169,2.101-0.638,2.646
			c-0.432,0.501-1.115,0.745-2.016,0.745C177.588,57.503,176.714,56.325,176.651,53.786z M263.514,47.807h-2.21c0,0,0,2.819,0,4.04
			c-1.012-0.934-4.376-4.04-4.376-4.04h-3.702v11.597h2.62c0,0,0-6.545,0-8.104c1.056,0.99,5.21,4.854,5.458,5.084
			c0,0.375,0,3.021,0,3.021h2.628V47.807H263.514z M238.121,47.807h-2.21v8.48c0,0.702-0.992,1.297-2.161,1.312
			c-0.902,0.015-1.589-0.196-1.974-0.623c-0.249-0.271-0.372-0.65-0.372-1.116v-8.053h-3.605v8.053c0,1.381,0.693,3.713,5.336,3.782
			c1.993,0.028,3.798-0.578,4.703-1.576c0.46-0.505,0.7-1.117,0.7-1.778v-8.48H238.121z M226.388,47.807h-3.186c0,0,0,2.834,0,3.532
			c-0.623,0-3.182,0-3.809,0c0-0.698,0-3.532,0-3.532h-3.61v11.597h3.61c0,0,0-5.24,0-6.032c0.627,0,3.186,0,3.809,0
			c0,0.792,0,6.032,0,6.032h3.603V47.807H226.388z M197.185,47.807h-2.197c0,0,0,2.831,0,4.04c-1.015-0.93-4.4-4.04-4.4-4.04h-3.697
			v11.597h2.628c0,0,0-6.545,0-8.104c1.055,0.984,5.214,4.854,5.47,5.084c0,0.375,0,3.021,0,3.021h2.621V47.807H197.185z
			 M171.27,47.807h-3.186c0,0,0,2.834,0,3.532c-0.619,0-3.203,0-3.82,0c0-0.698,0-3.532,0-3.532h-3.61v11.597h3.61
			c0,0,0-5.24,0-6.032c0.617,0,3.201,0,3.82,0c0,0.792,0,6.032,0,6.032h3.603V47.807H171.27z M153.132,47.807h-2.208
			c0,0,0,2.819,0,4.04c-1.012-0.934-4.389-4.04-4.389-4.04h-3.697v11.597h2.622c0,0,0-6.545,0-8.104
			c1.063,0.99,5.205,4.854,5.464,5.084c0,0.375,0,3.021,0,3.021h2.618V47.807H153.132z M110.053,47.807h-3.19v11.597h3.608V47.807
			H110.053z M93.38,47.807H83.052v1.96c0,0,2.901,0,3.553,0c0,0.851,0,9.637,0,9.637h3.61c0,0,0-8.786,0-9.637
			c0.654,0,3.575,0,3.575,0v-1.96H93.38z"/>
		<path fill-rule="evenodd" clip-rule="evenodd" fill="#3E3A39" d="M319.351,48.084h-2.214v8.48c0,0.694-0.992,1.299-2.16,1.317
			c-0.902,0.013-1.582-0.204-1.962-0.623c-0.258-0.283-0.385-0.652-0.385-1.12v-8.055h-3.606v8.055c0,1.378,0.691,3.709,5.343,3.779
			c1.997,0.027,3.794-0.577,4.698-1.575c0.463-0.509,0.702-1.122,0.702-1.778v-8.48H319.351z"/>
		<path fill-rule="evenodd" clip-rule="evenodd" fill="#3E3A39" d="M326.68,49.57c0.813,0,2.097,0.051,2.117,1.929
			c0.036,1.685-1.221,1.832-2.014,1.832h-2.599V49.57H326.68z M327.138,54.855c1.563,0,4.799,0.043,4.799-3.379
			c0.021-2.636-2.062-3.298-4.066-3.298h-6.644v11.586h2.958v-4.909H327.138z"/>
		<g>
			<g>
				<path fill-rule="evenodd" clip-rule="evenodd" fill="#3E3A39" d="M292.931,55.528c-0.657-0.9-1.62-1.54-2.396-1.801l-0.54-0.175
					l0.588-0.04c1.626-0.104,3.059-1.716,3.041-3.274c-0.031-1.727-1.646-2.483-3.339-2.483h-6.717v11.586h2.785v-5.524h0.419
					c1.101,0.016,1.924,0.231,2.649,0.962c1.553,1.615,1.708,2.553,1.854,4.263l0.019,0.3h3.072v-0.277
					C294.375,58.047,293.921,56.902,292.931,55.528z M288.111,52.633h-1.758v-3.75h1.916c1.163,0,2.313,0.027,2.35,1.355
					C290.667,51.587,289.271,52.633,288.111,52.633z"/>
			</g>
		</g>
		<g>
			<path fill-rule="evenodd" clip-rule="evenodd" fill="#3E3A39" d="M271.864,49.448c-0.947,1.057-1.466,2.444-1.466,3.91
				c0,3.648,2.708,6.021,6.912,6.028c1.815,0.017,3.515-0.581,4.332-1.141c0.006-0.008,0.807-0.59,0.807-0.59l-1.88-1.957
				l-0.613,0.615c-0.696,0.711-1.512,1.029-2.673,1.04c-0.827,0-1.511-0.277-2.016-0.843c-0.633-0.727-0.981-1.9-0.959-3.232
				c0.015-0.938,0.279-4.003,2.975-3.957c1.187,0.007,1.881,0.402,2.606,1.034c-0.005-0.004,0.267,0.235,0.267,0.235l0.3,0.261
				l1.787-2.118l-0.857-0.471c-1.358-0.678-2.435-0.926-4.136-0.926C274.369,47.332,272.731,48.477,271.864,49.448z"/>
			<rect x="277.525" y="53.884" fill="#3E3A39" width="4.915" height="1.328"/>
			<rect x="280.148" y="53.884" fill="#3E3A39" width="2.292" height="5.457"/>
		</g>
		<g>
			<g>
				<g>
					<path fill-rule="evenodd" clip-rule="evenodd" fill="#3E3A39" d="M301.215,47.103c-4.145,0.013-6.5,3.167-6.594,6.142
						c0,0.068-0.006,0.135-0.006,0.199c0,1.337,0.465,2.594,1.317,3.588c1.224,1.418,3.135,2.195,5.391,2.191
						c2.885-0.009,4.475-1.162,5.301-2.142c0.89-1.044,1.343-2.411,1.279-3.837C307.789,50.25,305.406,47.077,301.215,47.103z
						 M303.322,56.358c-0.432,0.502-1.104,0.754-2.012,0.754c-1.806,0-2.679-1.178-2.743-3.721
						c-0.034-1.288,0.402-2.644,1.113-3.471c0.458-0.523,0.971-0.79,1.551-0.79c2.593-0.008,2.73,4.404,2.73,4.593
						C304.006,54.949,303.793,55.808,303.322,56.358z"/>
				</g>
			</g>
		</g>
	</g>
	<g>
		<g>
			<path fill="#3E3A39" d="M201.137,10.584c0,0-31.389,0-31.822,0c0,0.487,0,28.403,0,28.785c0.506,0,29.765,0,29.765,0
				c2.272,0,4.751-1.722,4.872-4.288c0,0,0-24.01,0-24.497C203.516,10.584,201.137,10.584,201.137,10.584z M174.378,36.059V13.941
				h24.56v21.046c0,0.379-0.754,1.336-1.792,1.336h-22.768V36.059z M187.515,15.185c0.039,0.272,0.15,1.525,0.15,1.525
				s-10.599,0-11.104,0c0,0.408,0,1.942,0,2.335c0.506,0,11.623,0,11.623,0l1.624,8.677l-1.198,2.178
				c-0.187,0.398-1.062,1.326-1.633,1.651c-0.694,0.4-1.937,0.4-1.995,0.4c0,0-7.921,0-8.421,0c0,0.404,0,2.13,0,2.522
				c0.5,0,9.518,0,9.518,0c0.015,0,1.597,0.031,2.581-0.438c0.612-0.309,1.173-0.949,1.178-0.972l0.675-0.986l0.257,0.986
				c0.439,0.972,1.088,1.22,2.756,1.22c0,0,2.989,0,3.427,0c0-0.417,0-2.296,0-2.7c-0.292,0-0.819,0-0.819,0
				c-0.671,0-1.563-0.802-1.655-1.461c0,0.011-0.702-3.821-0.702-3.821l-0.027-0.101c0,0,2.977-3.892,3.398-4.551
				c-0.73,0-4.266-0.015-4.266-0.015l-0.36-1.968c0,0,2.205,0,2.468,0c0.128-0.224,1.83-3.127,2.191-3.726c-0.665,0-2.73,0-2.979,0
				c-0.137,0.228-1.834,2.95-1.834,2.95s-0.659-3.356-0.728-3.708C191.256,15.185,188.035,15.185,187.515,15.185z M184.873,20.798
				c0,0-7.856,0-8.253,0c0,0.469,0,8.843,0,9.209c0.486,0,5.941,0,5.941,0c2.258,0,4.136-1.54,4.171-3.414c0,0,0-5.337,0-5.795
				C186.32,20.798,184.873,20.798,184.873,20.798z M179.47,27.578v-4.27h4.312v3.175c0,0.371-0.481,1.36-1.521,1.36h-2.79V27.578z"
				/>
		</g>
		<g>
			<path fill="#3E3A39" d="M105.169,10.584c0,0-5.53,0-6.008,0c0,0.373,0,1.7,0,1.7H87.068c-1.587,0-2.89,1.251-2.89,2.804
				l0.017,0.237c0,0-0.017,3.011-0.017,3.449c0.466,0,5.256,0,5.725,0c0-0.428,0-2.857,0-2.857l24.094,0.013c0,0,0,2.335,0,2.754
				c0.454,0,5.51,0,5.966,0c0-0.443,0-3.447,0-3.447c-0.017-0.009-0.017-0.068-0.017-0.117c0-0.022,0-0.057,0-0.057
				c0-1.508-1.277-2.747-2.874-2.747l-0.378,0.029l-11.49-0.011c0,0,0-1.376,0-1.749C105.197,10.584,105.169,10.584,105.169,10.584z
				"/>
			<path fill="#3E3A39" d="M103.575,17.846c0,0-5.346,0-5.611,0c-0.123,0.228-2.067,3.197-2.067,3.197s-11.252,0-11.761,0
				c0,0.422,0,3.281,0,3.702c0.491-0.005,9.473-0.059,9.473-0.059l-6.322,10.028c-0.815,1.234-1.574,1.124-1.782,1.055
				c0,0-1.925,0-2.453,0c0.151,0.525,1.012,3.619,1.084,3.94c0.353,0,2.335,0,2.335,0c3.527-0.469,4.896-2.506,4.896-2.546
				l7.922-12.418c0,0,20.17,0,20.673,0c0-0.414,0-3.28,0-3.702c-0.489,0-18.358,0-18.358,0s1.665-2.598,2.036-3.197
				C103.623,17.846,103.575,17.846,103.575,17.846z"/>
			<path fill="#3E3A39" d="M108.644,26.903c0,0-5.635,0-5.907,0c-0.162,0.239-6.574,10.239-6.574,10.239
				c0-0.023-0.237,0.821-0.237,0.821c0,0.88,0.748,1.584,1.644,1.584h20.486c1.014,0,1.832-0.788,1.832-1.766l-0.083-0.515
				l-2.642-6.475c0,0,0-0.011-0.003-0.011c-0.316,0-4.795,0-5.449,0c0.261,0.597,2.069,4.986,2.069,4.986h-10.695
				c0,0,5.167-8.158,5.611-8.865C108.681,26.903,108.644,26.903,108.644,26.903z"/>
		</g>
		<g>
			<path fill="#3E3A39" d="M154.387,10.608h-7.452h-12.001c-0.066,0-1.635-0.246-2.313,0.919c-0.017,0.033-0.425,0.821-0.425,0.821
				c-0.773,1.697-2.105,4.558-5.076,4.558c0,0-0.035,0-0.048,0c0,0.397,0,2.578,0,2.98c0.436,0,2.646,0,2.646,0
				c1.353-0.072,2.025-0.588,2.025-0.606c2.662-1.435,3.623-4.091,3.854-4.881l0.055-0.18h17.959l0.072,0.18
				c0.235,0.79,1.198,3.467,3.88,4.9c0.041,0.019,0.691,0.516,1.984,0.588c0,0,2.219,0,2.657,0c0-0.402,0-2.583,0-2.98h-0.022
				c-3.004,0-4.323-2.861-5.109-4.558l-0.41-0.838C155.993,10.362,154.403,10.608,154.387,10.608z"/>
			<path fill="#3E3A39" d="M161.938,21.037c0,0-34.049,0-34.556,0c0,0.426,0,3.257,0,3.686c0.507,0,14.498,0,14.498,0v4.159
				c0,0-13.991,0-14.498,0c0,0.423,0,2.938,0,3.354c0.507,0,14.498,0,14.498,0v3.559c0,0-13.991,0-14.498,0c0,0.425,0,3.274,0,3.694
				c0.507,0,34.063,0,34.592,0c0-0.42,0-3.27,0-3.694c-0.025,0-14.698,0-14.698,0v-3.559c0,0,14.169,0,14.698,0
				c0-0.415,0-2.931,0-3.354c-0.025,0-14.698,0-14.698,0v-4.159c0,0,14.169,0,14.698,0c0-0.428,0-3.26,0-3.686
				C161.949,21.037,161.938,21.037,161.938,21.037z"/>
		</g>
		<g>
			<path fill="#3E3A39" d="M273.285,10.584c-0.076,0.329-0.487,1.946-0.487,1.946h-9.918c0,0,0.7-1.453,0.923-1.946
				c-0.675,0-4.95,0-5.255,0c-0.123,0.285-1.03,2.418-1.03,2.418c-0.304,0.779-0.829,0.956-1.209,0.956c0,0-1.268,0-1.655,0
				c0,0.419,0,3.2,0,3.616c0.389,0,2.621,0,2.621,0s0,10.858,0,11.345c0.441,0,3.621,0,4.073,0c0-0.193,0-0.66,0-0.66
				s28.635,0,29.146,0c0-0.386,0-2.208,0-2.592c-0.502,0-13.611,0-13.611,0v-1.793c0,0,12.132,0,12.65,0c0-0.376,0-2.078,0-2.462
				c-0.519,0-12.65,0-12.65,0v-1.927c0,0,12.132,0,12.65,0c0-0.38,0-2.03,0-2.421c-0.519,0-12.65,0-12.65,0v-2.062
				c0,0,12.942,0,13.447,0c0-0.378,0-2.076,0-2.471c-0.505,0-13.026,0-13.026,0s0.465-1.499,0.569-1.946
				C277.319,10.584,273.65,10.584,273.285,10.584z M261.348,16.808v-1.806h11.356v2.062h-11.356V16.808z M261.348,21.156v-1.672
				h11.356v1.927h-11.356V21.156z M261.348,25.41v-1.536h11.356v1.793h-11.356V25.41z M270.438,29.428c0,0.29,0,1.499,0,1.499
				s-15.111,0-15.628,0c0,0.402,0,2.335,0,2.741c0.517,0,15.628,0,15.628,0s0,5.604,0,6.076c0.462,0,3.681,0,4.146,0
				c0-0.473,0-6.076,0-6.076s15.086,0,15.586,0c0-0.406,0-2.339,0-2.741c-0.5,0-15.586,0-15.586,0s0-1.209,0-1.499
				C274.119,29.428,270.9,29.428,270.438,29.428z M277.461,34.965c0.494,0.647,2.566,3.361,2.566,3.361
				c0.665,0.744,1.588,1.157,2.653,1.157c0,0,7.162,0,7.648,0c0-0.4,0-1.841,0-2.24c-0.463,0-4.49,0-4.49,0
				c-1.488,0.06-1.972-0.648-2.271-0.977c-0.017,0-0.913-1.069-1.113-1.302C282.22,34.965,278.315,34.965,277.461,34.965z
				 M262.88,34.965c-0.148,0.164-1.149,1.302-1.149,1.302c-0.293,0.328-1.301,1.036-2.27,1.036c0,0-4.171,0-4.65,0
				c0,0.391,0,1.78,0,2.181c0.502,0,7.056,0,7.056,0c1.442,0,2.479-0.398,3.073-1.167c0,0,1.959-2.385,2.725-3.352
				C266.794,34.965,263.086,34.965,262.88,34.965z"/>
		</g>
		<g>
			<path fill="#3E3A39" d="M297.604,10.584c0,0.38,0,28.549,0,28.917c0.381,0,30.343,0,30.343,0c2.982,0,3.316-1.084,3.316-1.905
				c0,0,0-26.632,0-27.012C330.888,10.584,297.985,10.584,297.604,10.584z M301.765,37.097V12.82h25.836v23.234
				c0,0.371-0.676,1.228-2.216,1.228h-23.62V37.097z M313.187,13.963c0,0.142,0,0.496,0,0.496s-9.046,0-9.406,0
				c0,0.277,0,1.433,0,1.727c0.36,0,9.406,0,9.406,0v1.639c0,0-8.065,0-8.431,0c0,0.349,0,7.763,0,8.121c0.365,0,8.431,0,8.431,0
				v1.532c0,0-9.206,0-9.572,0c0,0.285,0,1.411,0,1.694c0.373,0,15.442,0,15.442,0v1.541c0,0-14.578,0-14.974,0
				c0,0.285,0,1.415,0,1.692c0.396,0,14.974,0,14.974,0v1.071c0,0.405-0.822,0.837-1.607,0.837c0,0-2.212,0-2.544,0
				c0,0.276,0,1.415,0,1.684c0.367,0,5.064,0,5.064,0c2.438,0,2.438-0.832,2.438-1.108v-2.483c0,0,2.354,0,2.695,0
				c0-0.277,0-1.407,0-1.692c-0.342,0-2.695,0-2.695,0v-1.567l0.425-0.029c0.738-0.071,1.322-0.246,1.76-0.547
				c0.487-0.329,0.811-0.97,1.003-1.835c-0.411,0-2.377,0-2.377,0l-0.1-0.84l0.175-0.046c0.678-0.143,0.988-0.584,0.988-1.378
				c0,0,0-6.296,0-6.646c-0.358,0-8.025,0-8.025,0v-1.639c0,0,8.455,0,8.847,0c0-0.294,0-1.45,0-1.727c-0.392,0-8.847,0-8.847,0
				s0-0.354,0-0.496C315.923,13.963,313.516,13.963,313.187,13.963z M307.758,20.995v-1.479h5.429v1.663h-5.429V20.995z
				 M316.257,20.995v-1.479h5.059v1.663h-5.059V20.995z M307.758,24.058v-1.452h5.429v1.637h-5.429V24.058z M316.257,24.058v-1.452
				h5.059v0.645c0,0.926-0.586,0.992-0.772,0.992h-4.286V24.058z M316.257,27.293v-1.347h6.236l-0.397,0.661
				c-0.353,0.59-0.944,0.871-1.751,0.871h-4.088V27.293z M306.937,33.69c0.334,0.424,1.299,1.595,1.299,1.595
				c0.362,0.408,0.819,0.582,1.424,0.582c0,0,3.185,0,3.527,0c0-0.253,0-0.911,0-1.164c-0.271,0-0.972,0-0.972,0
				c-0.189,0-0.812,0-1.021-0.543h0.006c-0.085-0.071-0.202-0.257-0.362-0.47C310.67,33.69,307.581,33.69,306.937,33.69z"/>
		</g>
		<g>
			<path fill="#3E3A39" d="M241.017,13.583c0,0-0.721-2.431-0.819-2.761c-0.314,0-3.479,0-4.015,0
				c0.148,0.599,2.347,9.227,2.347,9.227h-7.107c0,0,3.7-7.003,3.71-7.003c-0.024,0-0.024-0.698-0.024-1.369
				c0-0.461,0-0.815,0-1.058c-0.479,0-8.332-0.024-8.67-0.033c-0.117,0.307-1.72,4.509-1.94,5.095c0.59,0,2.974,0,3.254,0
				c0.118-0.266,1.202-2.657,1.202-2.657h2.558l-2.53,5.178c0,0-0.861-0.965-0.97-1.113c-0.195,0-2.793,0-3.514,0
				c0.481,0.634,2.845,3.801,2.845,3.801s-1.724,3.147-2.055,3.761c0.682,0,3.519-0.029,3.81-0.029
				c0.101-0.228,0.501-1.183,0.501-1.183h9.973l0.072,0.097c0.559,0.592,2.102,1.02,3.775,1.02c0,0,2.969,0,3.432,0
				c0-0.382,0-2.398,0-2.784c-0.415,0-1.892,0-1.892,0c-1.375,0.173-2.184-0.978-2.442-1.558c-0.029-0.063-0.269-1.203-0.269-1.203
				l-0.075-0.305 M225.458,26.369c0,0.421,0,2.794,0,3.201c0.479,0,8.123,0,8.123,0v5.699c0,2.32-0.265,2.487-0.396,2.556
				c-0.285,0.152-0.652,0.309-1.033,0.221c0.029,0.007-0.145,0-0.297-0.01c0,0.375-0.636,1.619-0.636,1.972c0.442,0,3.371,0,3.371,0
				c0.988,0,1.457-0.382,2.243-1.032c0.896-0.742,1.305-2.668,1.334-3.335v-6.07c0,0,7.803,0,8.307,0c0-0.406,0-2.78,0-3.201
				C245.953,26.369,225.96,26.369,225.458,26.369z M241.45,31.314c0.064,0.531,0.753,5.597,0.753,5.597
				c0.862,2.06,1.705,3.061,3.535,3.12c0,0,0.773-0.01,1.186-0.01c0-0.377,0-1.789,0-2.093c-0.681-0.136-1.066-1.107-1.349-2.019
				c-0.015-0.077-0.594-3.675-0.761-4.596C244.462,31.314,241.932,31.314,241.45,31.314z M226.835,31.314
				c-0.064,0.375-0.902,4.426-0.902,4.426c-0.011,0-0.035,0.17-0.035,0.17c-0.331,1.516-1.188,2.934-1.78,2.934c0,0-0.103,0-0.215,0
				c0,0.338,0.038,0.834,0.038,1.163c0.302,0,0.879,0,0.879,0c3.388,0.088,4.323-2.278,4.52-3.006c0,0,0.722-4.492,0.895-5.687
				C229.733,31.314,227.196,31.314,226.835,31.314z"/>
			<path fill="#3E3A39" d="M211.06,11.037c0,0.393,0,28.061,0,28.57c0.467,0,4.309,0,4.775,0c0-0.473,0-13.708,0-13.708h2.028
				c1.023,0,1.447,0.636,1.447,1v5.183c0,0.623-0.565,1.328-1.347,1.328c0,0-0.282,0-0.563,0c0.268,0.579,1.524,3.313,1.643,3.563
				c0.253-0.007,1.122-0.011,1.122-0.011c2.126,0,3.302-1.761,3.333-3.629v-8.077c0-1.672-0.281-2.491-2.264-2.739
				c-0.577-0.068-3.723-0.059-5.133-0.05h-0.267v-0.261v-7.621h2.028c1.023,0,1.447,0.628,1.447,0.998c0,0,0,5.29,0,5.769
				c0.462,0,3.234,0,3.234,0c1.039-0.029,1.001-0.52,1.03-1.499V13.73c0-1.81-0.523-2.677-2.719-2.693
				C220.856,11.037,211.57,11.037,211.06,11.037z"/>
			<path fill="#3E3A39" d="M244.169,19.788c0,0,3.374-6.491,3.374-6.499c-0.014,0-0.017-0.672-0.017-1.369c0-0.438,0-0.807,0-1.057
				c-0.483,0-5.046-0.022-5.395-0.022c-0.117,0.296-0.502,1.852-0.731,2.431c0.596,0-0.329,0-0.042,0c0.127-0.265,0,0,0,0h2.558
				l-3.296,6.646"/>
		</g>
	</g>
	<g>
		<g>
			<path fill-rule="evenodd" clip-rule="evenodd" fill="#004098" d="M30.899,57.158c0,1.409-1.145,2.552-2.554,2.552H2.552
				C1.143,59.71,0,58.567,0,57.158V8.635c0-1.411,1.143-2.554,2.552-2.554h25.794c1.409,0,2.554,1.143,2.554,2.554V57.158z"/>
			<path fill-rule="evenodd" clip-rule="evenodd" fill="#004098" d="M69.063,57.158c0,1.409-1.145,2.552-2.554,2.552H40.716
				c-1.409,0-2.552-1.143-2.552-2.552V8.635c0-1.411,1.143-2.554,2.552-2.554h25.793c1.409,0,2.554,1.143,2.554,2.554V57.158z"/>
			<path fill-rule="evenodd" clip-rule="evenodd" fill="#004098" stroke="#004098" stroke-width="4.4716" d="M5.539,33.187
				c0,11.856,12.716,21.502,28.344,21.502s28.34-9.646,28.34-21.502c0-11.855-12.712-21.503-28.34-21.503S5.539,21.331,5.539,33.187
				z"/>
			<ellipse fill-rule="evenodd" clip-rule="evenodd" fill="#FFFFFF" cx="33.883" cy="33.187" rx="27.457" ry="20.614"/>
			<g>
				<path fill-rule="evenodd" clip-rule="evenodd" fill="#004098" d="M9.414,27.495c-0.14,0-0.254,0.116-0.254,0.255l-0.005,2.967
					c0,0.069,0.028,0.134,0.075,0.182c0.048,0.048,0.112,0.075,0.18,0.075c0,0,4.432,0,4.891,0c0,0.479,0,8.746,0,8.746
					c0,0.139,0.114,0.253,0.253,0.253h3.761c0.142,0,0.254-0.114,0.254-0.253c0,0,0-8.263,0-8.74c0.461,0,4.918,0,4.918,0
					c0.144,0,0.257-0.114,0.257-0.258V27.75c0-0.14-0.114-0.255-0.257-0.255H9.414z"/>
				<path fill-rule="evenodd" clip-rule="evenodd" fill="#004098" d="M37.306,27.495c-0.142,0-0.253,0.116-0.253,0.255
					c0,0,0,3.656,0,4.106c-0.463,0-7.053,0-7.515,0c0-0.45,0-4.106,0-4.106c0-0.14-0.112-0.255-0.253-0.255h-3.769
					c-0.066,0-0.13,0.029-0.178,0.075c-0.048,0.048-0.074,0.114-0.074,0.182L25.27,39.65c0,0.14,0.114,0.256,0.254,0.256h3.788
					c0.14,0,0.254-0.116,0.254-0.256c0,0,0-4.051,0-4.507c0.458,0,6.921,0,7.382,0c0,0.456,0,4.507,0,4.507
					c0,0.14,0.112,0.256,0.254,0.256h3.759c0.142,0,0.255-0.116,0.255-0.256v-11.9c0-0.14-0.114-0.255-0.255-0.255H37.306z"/>
				<path fill-rule="evenodd" clip-rule="evenodd" fill="#004098" d="M50.551,27.392h-3.996c-3.878,0-3.954,3.37-3.954,3.405v5.649
					c0,3.627,3.912,3.669,3.954,3.669h7.733c3.88,0,3.925-3.632,3.925-3.669v-1.442c0-0.142-0.112-0.256-0.254-0.256h-3.671
					c-0.14,0-0.253,0.114-0.253,0.256c0,1.146-1.007,1.188-1.123,1.188h-4.981c-0.917,0-1.11-1.105-1.125-1.209
					c0-0.044,0-2.741,0-2.741c0-1.148,1.011-1.19,1.125-1.19h4.981c1.082,0,1.123,1.069,1.123,1.19
					c0.002,0.14,0.114,0.252,0.253,0.252h3.671c0.142,0,0.254-0.112,0.254-0.252v-1.443c0-3.366-3.884-3.407-3.925-3.407H50.551z"/>
			</g>
		</g>
		<g>
			<path fill="#FFFFFF" stroke="#004098" stroke-width="0.5326" stroke-miterlimit="3.8637" d="M70.533,5.027
				C70.533,2.254,72.786,0,75.562,0c2.776,0,5.029,2.254,5.029,5.027c0,2.778-2.252,5.029-5.029,5.029
				C72.786,10.056,70.533,7.805,70.533,5.027z"/>
			<text transform="matrix(1.073 0 0 1 72.1304 8.2681)" fill="#004098" font-family="'ArialMT'" font-size="8.7399">R</text>
		</g>
	</g>
</g>
</svg>
